<svg id="visual" viewBox="0 0 900 450" width="900" height="450" xmlns="http://www.w3.org/2000/svg" xmlns:xlink="http://www.w3.org/1999/xlink" version="1.1"><rect x="0" y="0" width="900" height="450" fill="#002233"></rect><path d="M0 126L10.7 117C21.3 108 42.7 90 64.2 77.8C85.7 65.7 107.3 59.3 128.8 64.7C150.3 70 171.7 87 193 88.5C214.3 90 235.7 76 257 79.8C278.3 83.7 299.7 105.3 321.2 117.8C342.7 130.3 364.3 133.7 385.8 120.7C407.3 107.7 428.7 78.3 450 73.7C471.3 69 492.7 89 514.2 104.5C535.7 120 557.3 131 578.8 130C600.3 129 621.7 116 643 111.5C664.3 107 685.7 111 707 117.2C728.3 123.3 749.7 131.7 771.2 134.3C792.7 137 814.3 134 835.8 132.5C857.3 131 878.7 131 889.3 131L900 131L900 0L889.3 0C878.7 0 857.3 0 835.8 0C814.3 0 792.7 0 771.2 0C749.7 0 728.3 0 707 0C685.7 0 664.3 0 643 0C621.7 0 600.3 0 578.8 0C557.3 0 535.7 0 514.2 0C492.7 0 471.3 0 450 0C428.7 0 407.3 0 385.8 0C364.3 0 342.7 0 321.2 0C299.7 0 278.3 0 257 0C235.7 0 214.3 0 193 0C171.7 0 150.3 0 128.8 0C107.3 0 85.7 0 64.2 0C42.7 0 21.3 0 10.7 0L0 0Z" fill="#0066FF" stroke-linecap="round" stroke-linejoin="miter"></path></svg>