<svg id="visual" viewBox="0 0 900 450" width="900" height="450" xmlns="http://www.w3.org/2000/svg" xmlns:xlink="http://www.w3.org/1999/xlink" version="1.1"><rect x="0" y="0" width="900" height="450" fill="#002233"></rect><path d="M0 322L10.7 331C21.3 340 42.7 358 64.2 370.2C85.7 382.3 107.3 388.7 128.8 383.3C150.3 378 171.7 361 193 359.5C214.3 358 235.7 372 257 368.2C278.3 364.3 299.7 342.7 321.2 330.2C342.7 317.7 364.3 314.3 385.8 327.3C407.3 340.3 428.7 369.7 450 374.3C471.3 379 492.7 359 514.2 343.5C535.7 328 557.3 317 578.8 318C600.3 319 621.7 332 643 336.5C664.3 341 685.7 337 707 330.8C728.3 324.7 749.7 316.3 771.2 313.7C792.7 311 814.3 314 835.8 315.5C857.3 317 878.7 317 889.3 317L900 317L900 451L889.3 451C878.7 451 857.3 451 835.8 451C814.3 451 792.7 451 771.2 451C749.7 451 728.3 451 707 451C685.7 451 664.3 451 643 451C621.7 451 600.3 451 578.8 451C557.3 451 535.7 451 514.2 451C492.7 451 471.3 451 450 451C428.7 451 407.3 451 385.8 451C364.3 451 342.7 451 321.2 451C299.7 451 278.3 451 257 451C235.7 451 214.3 451 193 451C171.7 451 150.3 451 128.8 451C107.3 451 85.7 451 64.2 451C42.7 451 21.3 451 10.7 451L0 451Z" fill="#0066FF" stroke-linecap="round" stroke-linejoin="miter"></path></svg>