<svg id="visual" viewBox="0 0 900 600" width="900" height="600" xmlns="http://www.w3.org/2000/svg" xmlns:xlink="http://www.w3.org/1999/xlink" version="1.1"><rect x="0" y="0" width="900" height="600" fill="#002233"></rect><path d="M0 365L13.7 347.7C27.3 330.3 54.7 295.7 82 290C109.3 284.3 136.7 307.7 163.8 322.8C191 338 218 345 245.2 343.3C272.3 341.7 299.7 331.3 327 336.8C354.3 342.3 381.7 363.7 409 353.5C436.3 343.3 463.7 301.7 491 293.7C518.3 285.7 545.7 311.3 573 308.7C600.3 306 627.7 275 654.8 265.3C682 255.7 709 267.3 736.2 274.5C763.3 281.7 790.7 284.3 818 282.3C845.3 280.3 872.7 273.7 886.3 270.3L900 267L900 0L886.3 0C872.7 0 845.3 0 818 0C790.7 0 763.3 0 736.2 0C709 0 682 0 654.8 0C627.7 0 600.3 0 573 0C545.7 0 518.3 0 491 0C463.7 0 436.3 0 409 0C381.7 0 354.3 0 327 0C299.7 0 272.3 0 245.2 0C218 0 191 0 163.8 0C136.7 0 109.3 0 82 0C54.7 0 27.3 0 13.7 0L0 0Z" fill="#0066FF" stroke-linecap="round" stroke-linejoin="miter"></path></svg>