<svg id="visual" viewBox="0 0 900 900" width="900" height="900" xmlns="http://www.w3.org/2000/svg" xmlns:xlink="http://www.w3.org/1999/xlink" version="1.1"><rect x="0" y="0" width="900" height="900" fill="#0066FF"></rect><path d="M0 815L15 811.8C30 808.7 60 802.3 90 797.5C120 792.7 150 789.3 180 786.3C210 783.3 240 780.7 270 779C300 777.3 330 776.7 360 787.5C390 798.3 420 820.7 450 831C480 841.3 510 839.7 540 830.2C570 820.7 600 803.3 630 800.7C660 798 690 810 720 822.3C750 834.7 780 847.3 810 844.3C840 841.3 870 822.7 885 813.3L900 804L900 901L885 901C870 901 840 901 810 901C780 901 750 901 720 901C690 901 660 901 630 901C600 901 570 901 540 901C510 901 480 901 450 901C420 901 390 901 360 901C330 901 300 901 270 901C240 901 210 901 180 901C150 901 120 901 90 901C60 901 30 901 15 901L0 901Z" fill="#002233" stroke-linecap="round" stroke-linejoin="miter"></path></svg>