<svg id="visual" viewBox="0 0 900 450" width="900" height="450" xmlns="http://www.w3.org/2000/svg" xmlns:xlink="http://www.w3.org/1999/xlink" version="1.1"><rect x="0" y="0" width="900" height="450" fill="#0066FF"></rect><path d="M0 281L21.5 299.2C43 317.3 86 353.7 128.8 359C171.7 364.3 214.3 338.7 257.2 337C300 335.3 343 357.7 385.8 359.8C428.7 362 471.3 344 514.2 329C557 314 600 302 642.8 304.8C685.7 307.7 728.3 325.3 771.2 334.7C814 344 857 345 878.5 345.5L900 346L900 451L878.5 451C857 451 814 451 771.2 451C728.3 451 685.7 451 642.8 451C600 451 557 451 514.2 451C471.3 451 428.7 451 385.8 451C343 451 300 451 257.2 451C214.3 451 171.7 451 128.8 451C86 451 43 451 21.5 451L0 451Z" fill="#002233" stroke-linecap="round" stroke-linejoin="miter"></path></svg>