<svg id="visual" viewBox="0 0 900 675" width="900" height="675" xmlns="http://www.w3.org/2000/svg" xmlns:xlink="http://www.w3.org/1999/xlink" version="1.1"><rect x="0" y="0" width="900" height="675" fill="#002233"></rect><path d="M0 33L7.8 41.7C15.7 50.3 31.3 67.7 47.2 84C63 100.3 79 115.7 94.8 129.8C110.7 144 126.3 157 142 150.7C157.7 144.3 173.3 118.7 189.2 100.3C205 82 221 71 236.8 77.5C252.7 84 268.3 108 284.2 110.5C300 113 316 94 331.8 99.7C347.7 105.3 363.3 135.7 379 137.3C394.7 139 410.3 112 426.2 100.2C442 88.3 458 91.7 473.8 85C489.7 78.3 505.3 61.7 521 56.5C536.7 51.3 552.3 57.7 568.2 72.8C584 88 600 112 615.8 116.8C631.7 121.7 647.3 107.3 663.2 92.8C679 78.3 695 63.7 710.8 73.5C726.7 83.3 742.3 117.7 758 129.8C773.7 142 789.3 132 805.2 114.5C821 97 837 72 852.8 79.2C868.7 86.3 884.3 125.7 892.2 145.3L900 165L900 0L892.2 0C884.3 0 868.7 0 852.8 0C837 0 821 0 805.2 0C789.3 0 773.7 0 758 0C742.3 0 726.7 0 710.8 0C695 0 679 0 663.2 0C647.3 0 631.7 0 615.8 0C600 0 584 0 568.2 0C552.3 0 536.7 0 521 0C505.3 0 489.7 0 473.8 0C458 0 442 0 426.2 0C410.3 0 394.7 0 379 0C363.3 0 347.7 0 331.8 0C316 0 300 0 284.2 0C268.3 0 252.7 0 236.8 0C221 0 205 0 189.2 0C173.3 0 157.7 0 142 0C126.3 0 110.7 0 94.8 0C79 0 63 0 47.2 0C31.3 0 15.7 0 7.8 0L0 0Z" fill="#0066FF" stroke-linecap="round" stroke-linejoin="miter"></path></svg>